<?xml version="1.0" encoding="utf-8"?>
<!-- Generator: Adobe Illustrator 23.0.1, SVG Export Plug-In . SVG Version: 6.00 Build 0)  -->
<svg version="1.1"
	 id="svg19052" inkscape:version="0.92.1 r15371" sodipodi:docname="ALLVAR.svg" xmlns:cc="http://creativecommons.org/ns#" xmlns:dc="http://purl.org/dc/elements/1.1/" xmlns:inkscape="http://www.inkscape.org/namespaces/inkscape" xmlns:rdf="http://www.w3.org/1999/02/22-rdf-syntax-ns#" xmlns:sodipodi="http://sodipodi.sourceforge.net/DTD/sodipodi-0.dtd" xmlns:svg="http://www.w3.org/2000/svg"
	 xmlns="http://www.w3.org/2000/svg" xmlns:xlink="http://www.w3.org/1999/xlink" x="0px" y="0px" viewBox="0 0 16.1 16.1"
	 style="enable-background:new 0 0 16.1 16.1;" xml:space="preserve">
<style type="text/css">
	.st0{fill:#7A1F2E;}
	.st1{stroke:#000000;stroke-width:0.25;stroke-miterlimit:10;}
</style>
<sodipodi:namedview  bordercolor="#666666" borderopacity="1" gridtolerance="10" guidetolerance="10" id="namedview19054" inkscape:current-layer="g19060" inkscape:cx="479.09063" inkscape:cy="73.316223" inkscape:pageopacity="0" inkscape:pageshadow="2" inkscape:window-height="988" inkscape:window-maximized="1" inkscape:window-width="1680" inkscape:window-x="1272" inkscape:window-y="-8" inkscape:zoom="2.3787301" objecttolerance="10" pagecolor="#ffffff" showgrid="false">
	</sodipodi:namedview>
<path id="path36465" inkscape:connector-curvature="0" class="st0" d="M434.2-772.3c0.4,0,0.6,0.1,0.6,0.3c0,0.1,0,0.2-0.1,0.4l0,0
	l-0.5,3.6c0,0.3-0.3,0.5-0.7,0.5h-6v3.1h5c0.3,0,0.4,0,0.5,0.1s0.1,0.3,0.1,0.5v3.5c0,0.3,0,0.4-0.1,0.5s-0.3,0.1-0.5,0.1h-5v3.6
	h6.4c0.3,0,0.5,0,0.5,0.1c0.1,0.1,0.1,0.2,0.1,0.5v3.6c0,0.3,0,0.5-0.1,0.5c-0.1,0.1-0.2,0.1-0.5,0.1"/>
<path class="st1" d="M1.6,15.9c-0.3-0.1-0.5-0.1-0.8-0.3c-0.4-0.3-0.6-0.7-0.5-1.2c0.1-1.8,0.9-3.1,2.4-3.9c0.6-0.3,0.8-0.4,1.4-0.5
	c0.2,0,0.4,0.1,0.5,0.4c0.1,0.2,0,0.4-0.2,0.5C4.3,11,4.2,11,4.1,11c-0.9,0-1.2,0.3-1.8,0.9c-0.7,0.7-1.1,1.5-1.1,2.5
	c0,0.3,0.2,0.5,0.5,0.5c0,0,0.1,0,0.1,0c4.2,0,8.3,0,12.5,0c0.3,0,0.5-0.1,0.6-0.4c0-0.1,0-0.1,0-0.2c0-1.6-0.7-2.9-2.2-3.3
	C12.4,11,12.2,11,12,11c-0.3,0-0.5-0.2-0.5-0.5c0-0.3,0.2-0.5,0.5-0.5c1.9,0,3,1.2,3.6,3.1c0.1,0.3,0.1,0.6,0.2,0.9c0,0,0,0.1,0,0.1
	c0,0.2,0,0.3,0,0.5c0,0,0,0,0,0.1c-0.1,0.4-0.2,0.7-0.5,0.9c-0.2,0.2-0.5,0.3-0.8,0.3C10.2,15.9,5.9,15.9,1.6,15.9z"/>
<path class="st1" d="M3.7,5.6C3.7,4.3,4,3.1,4.9,2c0.6-0.8,1.3-1.3,2.3-1.6C8.1,0.2,9,0.3,9.8,0.8c1.1,0.6,1.9,1.6,2.3,2.8
	c0.5,1.4,0.5,2.7,0,4.1c-0.4,1.2-1.1,2.2-2.3,2.8c-1,0.6-2.1,0.6-3.2,0.2c-1-0.4-1.7-1.2-2.3-2.2C3.9,7.6,3.7,6.7,3.7,5.6z
	 M11.5,5.5c0-0.2,0-0.5-0.1-0.8c-0.2-1.1-0.7-2.1-1.6-2.8C9,1.3,8.1,1.1,7.2,1.4C6.4,1.7,5.8,2.2,5.4,3C4.7,4.1,4.5,5.4,4.7,6.7
	c0.2,1,0.6,1.9,1.4,2.6c0.6,0.6,1.4,0.9,2.3,0.8c0.9-0.1,1.6-0.6,2.1-1.3C11.2,7.8,11.4,6.8,11.5,5.5z"/>
</svg>
