<svg id="svg19052" xmlns="http://www.w3.org/2000/svg" viewBox="0 0 16.1 16.1"><style>.st1{stroke:#000;stroke-width:.25;stroke-miterlimit:10}</style><path id="path36465" d="M434.2-772.3c.4 0 .6.1.6.3 0 .1 0 .2-.1.4l-.5 3.6c0 .3-.3.5-.7.5h-6v3.1h5c.3 0 .4 0 .5.1s.1.3.1.5v3.5c0 .3 0 .4-.1.5s-.3.1-.5.1h-5v3.6h6.4c.3 0 .5 0 .5.1.1.1.1.2.1.5v3.6c0 .3 0 .5-.1.5-.1.1-.2.1-.5.1" fill="#7a1f2e"/><path class="st1" d="M1.6 15.9c-.3-.1-.5-.1-.8-.3-.4-.3-.6-.7-.5-1.2.1-1.8.9-3.1 2.4-3.9.6-.3.8-.4 1.4-.5.2 0 .4.1.5.4.1.2 0 .4-.2.5-.1.1-.2.1-.3.1-.9 0-1.2.3-1.8.9-.7.7-1.1 1.5-1.1 2.5 0 .3.2.5.5.5h12.6c.3 0 .5-.1.6-.4v-.2c0-1.6-.7-2.9-2.2-3.3H12c-.3 0-.5-.2-.5-.5s.2-.5.5-.5c1.9 0 3 1.2 3.6 3.1.1.3.1.6.2.9v.7c-.1.4-.2.7-.5.9-.2.2-.5.3-.8.3H1.6z"/><path class="st1" d="M3.7 5.6c0-1.3.3-2.5 1.2-3.6C5.5 1.2 6.2.7 7.2.4 8.1.2 9 .3 9.8.8c1.1.6 1.9 1.6 2.3 2.8.5 1.4.5 2.7 0 4.1-.4 1.2-1.1 2.2-2.3 2.8-1 .6-2.1.6-3.2.2-1-.4-1.7-1.2-2.3-2.2-.4-.9-.6-1.8-.6-2.9zm7.8-.1c0-.2 0-.5-.1-.8-.2-1.1-.7-2.1-1.6-2.8-.8-.6-1.7-.8-2.6-.5-.8.3-1.4.8-1.8 1.6-.7 1.1-.9 2.4-.7 3.7.2 1 .6 1.9 1.4 2.6.6.6 1.4.9 2.3.8.9-.1 1.6-.6 2.1-1.3.7-1 .9-2 1-3.3z"/></svg>